<svg xmlns="http://www.w3.org/2000/svg" version="1.1" width="128px" height="128px" style="shape-rendering:geometricPrecision; text-rendering:geometricPrecision; image-rendering:optimizeQuality; fill-rule:evenodd; clip-rule:evenodd" xmlns:xlink="http://www.w3.org/1999/xlink">
<g><path style="opacity:0.977" fill="#90c12d" d="M 57.5,0.5 C 92.8482,0.0686421 115.348,16.7353 125,50.5C 129.734,82.5338 117.9,106.034 89.5,121C 59.3938,131.933 33.8938,125.433 13,101.5C -4.89773,72.9454 -3.23106,45.612 18,19.5C 29.0874,8.7053 42.2541,2.37197 57.5,0.5 Z"/></g>
<g><path style="opacity:1" fill="#fcfdfa" d="M 47.5,19.5 C 51.2976,22.7961 54.9643,26.2961 58.5,30C 61.8333,30.6667 65.1667,30.6667 68.5,30C 72,26.5 75.5,23 79,19.5C 80.0217,20.354 80.8551,21.354 81.5,22.5C 79.0164,25.4843 76.3497,28.3176 73.5,31C 76.2081,32.0695 78.8747,33.2361 81.5,34.5C 81.9646,37.3231 80.9646,39.8231 78.5,42C 64.9096,50.9189 53.243,48.9189 43.5,36C 46.5544,33.8061 49.8878,32.1395 53.5,31C 51,28.5 48.5,26 46,23.5C 45.7003,21.9343 46.2003,20.601 47.5,19.5 Z"/></g>
<g><path style="opacity:1" fill="#fdfefc" d="M 37.5,39.5 C 40.5576,42.0514 43.5576,44.8847 46.5,48C 50.2842,50.3073 54.1176,52.474 58,54.5C 63.8099,68.7922 62.1432,82.1255 53,94.5C 50.9495,96.8878 48.6162,98.8878 46,100.5C 35.1831,94.6689 28.5165,85.6689 26,73.5C 24.6107,60.3864 28.4441,49.0531 37.5,39.5 Z"/></g>
<g><path style="opacity:1" fill="#fdfefc" d="M 87.5,39.5 C 89.371,39.8588 90.871,40.8588 92,42.5C 105.842,61.907 104.342,80.0737 87.5,97C 85.5566,98.5555 83.3899,99.7221 81,100.5C 72.9811,94.4776 67.9811,86.4776 66,76.5C 64.9124,68.8873 65.9124,61.554 69,54.5C 72.7325,52.2609 76.5658,50.0942 80.5,48C 83.4234,45.5838 85.7567,42.7504 87.5,39.5 Z"/></g>
</svg>
