<?xml version="1.0" encoding="UTF-8"?>
<svg xmlns="http://www.w3.org/2000/svg" version="1.1" width="128px" height="128px" style="shape-rendering:geometricPrecision; text-rendering:geometricPrecision; image-rendering:optimizeQuality; fill-rule:evenodd; clip-rule:evenodd" xmlns:xlink="http://www.w3.org/1999/xlink">
<g><path style="opacity:0.978" fill="#0d6dc4" d="M 57.5,0.5 C 92.8482,0.0686421 115.348,16.7353 125,50.5C 129.734,82.5338 117.9,106.034 89.5,121C 59.3938,131.933 33.8938,125.433 13,101.5C -4.89773,72.9454 -3.23106,45.612 18,19.5C 29.0874,8.7053 42.2541,2.37197 57.5,0.5 Z"/></g>
<g><path style="opacity:1" fill="#fbfcfe" d="M 65.5,12.5 C 66.802,17.0363 66.802,21.703 65.5,26.5C 90.4348,30.7416 102.268,45.4082 101,70.5C 98.6796,84.1472 91.1796,93.6472 78.5,99C 67.0366,100.435 59.7033,95.6015 56.5,84.5C 73.6068,85.56 81.4402,77.56 80,60.5C 76,55.1667 72,49.8333 68,44.5C 64.2063,52.8204 57.7063,57.3204 48.5,58C 40.6042,57.7774 33.1042,59.2774 26,62.5C 26.1098,54.5993 28.7765,47.5993 34,41.5C 39.8756,35.8137 46.3756,30.9804 53.5,27C 58.4667,22.8758 62.4667,18.0425 65.5,12.5 Z"/></g>
<g><path style="opacity:1" fill="#2d78c8" d="M 46.5,40.5 C 48.893,42.7617 49.0597,45.4284 47,48.5C 44.0746,50.9119 40.9079,51.9119 37.5,51.5C 39.4495,46.8922 42.4495,43.2256 46.5,40.5 Z"/></g>
<g><path style="opacity:1" fill="#f7fafd" d="M 42.5,65.5 C 46.5546,65.1758 50.5546,65.5091 54.5,66.5C 48.1588,78.8388 49.4921,90.3388 58.5,101C 41.8646,98.363 31.6979,88.863 28,72.5C 32.462,69.1842 37.2954,66.8508 42.5,65.5 Z"/></g>
</svg>
