<svg xmlns="http://www.w3.org/2000/svg" version="1.1" width="128px" height="128px" style="shape-rendering:geometricPrecision; text-rendering:geometricPrecision; image-rendering:optimizeQuality; fill-rule:evenodd; clip-rule:evenodd" xmlns:xlink="http://www.w3.org/1999/xlink">
<g><path style="opacity:0.981" fill="#f3d23b" d="M 57.5,0.5 C 92.8609,0.07305 115.361,16.7397 125,50.5C 129.734,82.5338 117.9,106.034 89.5,121C 59.4062,131.936 33.9062,125.436 13,101.5C -4.89644,72.9326 -3.22977,45.5992 18,19.5C 29.0874,8.7053 42.2541,2.37197 57.5,0.5 Z"/></g>
<g><path style="opacity:1" fill="#fefefc" d="M 32.5,55.5 C 39.3447,54.8334 46.3447,54.1667 53.5,53.5C 53.3764,52.8933 53.0431,52.56 52.5,52.5C 49.5821,44.8295 46.2487,37.3295 42.5,30C 53.41,29.1804 64.2433,29.3471 75,30.5C 79.3802,43.9714 83.5469,57.4714 87.5,71C 81.5092,71.4995 75.5092,71.6662 69.5,71.5C 72.3883,81.3342 75.3883,91.1675 78.5,101C 78.1667,101.5 77.8333,102 77.5,102.5C 62.1417,87.1424 47.1417,71.4757 32.5,55.5 Z"/></g>
<g><path style="opacity:1" fill="#fcf3cc" d="M 52.5,52.5 C 53.0431,52.56 53.3764,52.8933 53.5,53.5C 46.3447,54.1667 39.3447,54.8334 32.5,55.5C 31.7109,55.2172 31.0442,54.7172 30.5,54C 38.0115,53.8288 45.3448,53.3288 52.5,52.5 Z"/></g>
</svg>
