<svg xmlns="http://www.w3.org/2000/svg" version="1.1" width="128px" height="128px" style="shape-rendering:geometricPrecision; text-rendering:geometricPrecision; image-rendering:optimizeQuality; fill-rule:evenodd; clip-rule:evenodd" xmlns:xlink="http://www.w3.org/1999/xlink">
<g><path style="opacity:0.978" fill="#ec8fe6" d="M 57.5,0.5 C 92.8609,0.07305 115.361,16.7397 125,50.5C 129.734,82.5338 117.9,106.034 89.5,121C 59.4062,131.936 33.9062,125.436 13,101.5C -4.89644,72.9326 -3.22977,45.5992 18,19.5C 29.0874,8.7053 42.2541,2.37197 57.5,0.5 Z"/></g>
<g><path style="opacity:1" fill="#fefdfe" d="M 62.5,19.5 C 64.0174,19.5106 65.1841,20.1772 66,21.5C 69.6258,27.2505 73.1258,33.0838 76.5,39C 81.1758,38.5012 85.8425,37.6679 90.5,36.5C 89.0219,41.073 88.1886,45.7397 88,50.5C 94.7949,54.4744 101.295,58.8077 107.5,63.5C 106.687,64.8139 105.687,65.9805 104.5,67C 98.9184,70.0403 93.4184,73.207 88,76.5C 88.4988,81.1758 89.3321,85.8425 90.5,90.5C 85.769,89.6459 81.1023,88.8125 76.5,88C 72.7004,94.7866 68.5338,101.287 64,107.5C 63.5,107.333 63,107.167 62.5,107C 58.5,100.667 54.5,94.3333 50.5,88C 46.2122,87.9443 42.0455,88.7776 38,90.5C 37.5,90.1667 37,89.8333 36.5,89.5C 37.8282,85.2008 38.6615,80.8675 39,76.5C 32.2134,72.7004 25.7134,68.5338 19.5,64C 19.7591,62.7387 20.4258,61.7387 21.5,61C 27.5819,57.8773 33.4153,54.3773 39,50.5C 38.8206,46.2696 37.9873,42.1029 36.5,38C 36.8333,37.5 37.1667,37 37.5,36.5C 41.7529,38.051 46.0862,38.8844 50.5,39C 54.3286,32.3504 58.3286,25.8504 62.5,19.5 Z"/></g>
<g><path style="opacity:1" fill="#ec91e6" d="M 62.5,46.5 C 63.4959,46.4142 64.3292,46.7476 65,47.5C 66.8333,50.6667 68.6667,53.8333 70.5,57C 74.0405,58.9312 77.3738,61.0979 80.5,63.5C 77.3738,65.9021 74.0405,68.0688 70.5,70C 68.7735,73.9673 66.4402,77.4673 63.5,80.5C 61.1141,78.2692 59.2807,75.6025 58,72.5C 54.2184,69.3682 50.3851,66.3682 46.5,63.5C 49.5327,60.5598 53.0327,58.2265 57,56.5C 59.0623,53.2766 60.8956,49.9432 62.5,46.5 Z"/></g>
</svg>
