<svg xmlns="http://www.w3.org/2000/svg" version="1.1" width="128px" height="128px" style="shape-rendering:geometricPrecision; text-rendering:geometricPrecision; image-rendering:optimizeQuality; fill-rule:evenodd; clip-rule:evenodd" xmlns:xlink="http://www.w3.org/1999/xlink">
<g><path style="opacity:0.977" fill="#ce426a" d="M 57.5,0.5 C 92.8609,0.07305 115.361,16.7397 125,50.5C 129.734,82.5338 117.9,106.034 89.5,121C 59.4062,131.936 33.9062,125.436 13,101.5C -4.89644,72.9326 -3.22977,45.5992 18,19.5C 29.0874,8.7053 42.2541,2.37197 57.5,0.5 Z"/></g>
<g><path style="opacity:1" fill="#fefdfd" d="M 39.5,33.5 C 43.1064,33.2108 46.6064,33.5442 50,34.5C 50.4997,41.8258 50.6663,49.1591 50.5,56.5C 52.1667,56.5 53.8333,56.5 55.5,56.5C 55.5,48.8333 55.5,41.1667 55.5,33.5C 59.1064,33.2108 62.6064,33.5442 66,34.5C 66.4997,41.8258 66.6663,49.1591 66.5,56.5C 68.1667,56.5 69.8333,56.5 71.5,56.5C 71.3337,49.1591 71.5003,41.8258 72,34.5C 75.6667,33.1667 79.3333,33.1667 83,34.5C 83.4997,41.8258 83.6663,49.1591 83.5,56.5C 85.1667,56.5 86.8333,56.5 88.5,56.5C 88.3337,49.1591 88.5003,41.8258 89,34.5C 92.3333,33.1667 95.6667,33.1667 99,34.5C 99.5,54.1638 99.6666,73.8305 99.5,93.5C 79.8305,93.6666 60.1638,93.5 40.5,93C 39.8742,92.2496 39.3742,91.4162 39,90.5C 38.1805,71.4267 38.3471,52.4267 39.5,33.5 Z"/></g>
<g><path style="opacity:1" fill="#fefcfc" d="M 27.5,52.5 C 29.5,52.5 31.5,52.5 33.5,52.5C 33.5,66.1667 33.5,79.8333 33.5,93.5C 31.396,93.7989 29.396,93.4656 27.5,92.5C 24.8754,86.2552 22.5421,79.9219 20.5,73.5C 22.2371,66.2887 24.5704,59.2887 27.5,52.5 Z"/></g>
</svg>
