<svg xmlns="http://www.w3.org/2000/svg" version="1.1" width="128px" height="128px" style="shape-rendering:geometricPrecision; text-rendering:geometricPrecision; image-rendering:optimizeQuality; fill-rule:evenodd; clip-rule:evenodd" xmlns:xlink="http://www.w3.org/1999/xlink">
<g><path style="opacity:0.979" fill="#ff9c54" d="M 57.5,0.5 C 92.8609,0.07305 115.361,16.7397 125,50.5C 129.734,82.5338 117.9,106.034 89.5,121C 59.4062,131.936 33.9062,125.436 13,101.5C -4.89644,72.9326 -3.22977,45.5992 18,19.5C 29.0874,8.7053 42.2541,2.37197 57.5,0.5 Z"/></g>
<g><path style="opacity:1" fill="#fffcfb" d="M 36.5,66.5 C 36.9867,67.4734 37.4867,68.4734 38,69.5C 38.498,66.5184 38.6646,63.5184 38.5,60.5C 38.8404,47.1657 45.1738,37.8324 57.5,32.5C 61.9694,27.7692 64.3027,22.1025 64.5,15.5C 71.9918,19.9852 75.3251,26.4852 74.5,35C 64.8842,37.3996 62.0509,43.2329 66,52.5C 70.7388,58.082 76.2388,58.9154 82.5,55C 86.8061,50.8119 87.4728,46.1452 84.5,41C 99.695,50.3184 103.195,63.1517 95,79.5C 88.6738,88.9131 79.8405,93.4131 68.5,93C 80.4636,84.5196 80.4636,76.1862 68.5,68C 53.145,67.029 47.9783,73.8623 53,88.5C 59.3223,96.5749 67.489,99.4083 77.5,97C 82.8995,95.7562 88.0662,93.9228 93,91.5C 93.1667,91.8333 93.3333,92.1667 93.5,92.5C 82.2427,105.617 68.2427,109.783 51.5,105C 32.3793,95.5918 24.8793,80.4252 29,59.5C 30.4131,56.3388 32.0797,53.3388 34,50.5C 34.147,55.9737 34.9804,61.307 36.5,66.5 Z"/></g>
<g><path style="opacity:1" fill="#ffbf90" d="M 38.5,60.5 C 38.6646,63.5184 38.498,66.5184 38,69.5C 37.4867,68.4734 36.9867,67.4734 36.5,66.5C 37.1667,64.5 37.8333,62.5 38.5,60.5 Z"/></g>
</svg>
