<svg xmlns="http://www.w3.org/2000/svg" version="1.1" width="128px" height="128px" style="shape-rendering:geometricPrecision; text-rendering:geometricPrecision; image-rendering:optimizeQuality; fill-rule:evenodd; clip-rule:evenodd" xmlns:xlink="http://www.w3.org/1999/xlink">
<g><path style="opacity:0.974" fill="#5269ac" d="M 57.5,0.5 C 92.8609,0.07305 115.361,16.7397 125,50.5C 129.734,82.5338 117.9,106.034 89.5,121C 59.4062,131.936 33.9062,125.436 13,101.5C -4.89644,72.9326 -3.22977,45.5992 18,19.5C 29.0874,8.7053 42.2541,2.37197 57.5,0.5 Z"/></g>
<g><path style="opacity:1" fill="#fcfcfd" d="M 57.5,22.5 C 85.9548,24.1191 100.121,39.1191 100,67.5C 97.4761,75.3685 94.3094,82.8685 90.5,90C 90.3332,93.5017 91.9998,95.5017 95.5,96C 75.972,105.391 56.972,104.391 38.5,93C 22.9249,79.2011 19.0916,62.7011 27,43.5C 34.0893,31.8924 44.256,24.8924 57.5,22.5 Z"/></g>
<g><path style="opacity:1" fill="#586eae" d="M 41.5,48.5 C 43.7567,54.4648 48.0901,57.1314 54.5,56.5C 53.356,64.0707 49.0226,66.5707 41.5,64C 36.1748,58.6686 36.1748,53.5019 41.5,48.5 Z"/></g>
<g><path style="opacity:1" fill="#586eae" d="M 80.5,48.5 C 84.0028,49.6486 85.6695,52.1486 85.5,56C 84.5549,63.921 80.2215,66.5877 72.5,64C 69.6026,62.2845 68.2693,59.7845 68.5,56.5C 75.2654,57.7939 79.2654,55.1272 80.5,48.5 Z"/></g>
</svg>
