<svg xmlns="http://www.w3.org/2000/svg" version="1.1" width="128px" height="128px" style="shape-rendering:geometricPrecision; text-rendering:geometricPrecision; image-rendering:optimizeQuality; fill-rule:evenodd; clip-rule:evenodd" xmlns:xlink="http://www.w3.org/1999/xlink">
<g><path style="opacity:0.977" fill="#64bb5c" d="M 57.5,0.5 C 92.8609,0.07305 115.361,16.7397 125,50.5C 129.734,82.5338 117.9,106.034 89.5,121C 59.4062,131.936 33.9062,125.436 13,101.5C -4.89644,72.9326 -3.22977,45.5992 18,19.5C 29.0874,8.7053 42.2541,2.37197 57.5,0.5 Z"/></g>
<g><path style="opacity:1" fill="#fcfdfc" d="M 79.5,86.5 C 71.1667,85.8333 62.8333,85.1667 54.5,84.5C 57.2304,79.5959 60.5637,75.0959 64.5,71C 70.798,69.5403 77.1313,68.207 83.5,67C 85.3588,66.3992 85.6921,65.5659 84.5,64.5C 79.8333,63.8333 75.1667,63.1667 70.5,62.5C 74.449,56.7111 78.6157,51.0445 83,45.5C 84.0086,43.9751 84.5086,42.3084 84.5,40.5C 83.448,40.3505 82.448,40.5172 81.5,41C 76.3506,47.3163 70.684,53.1496 64.5,58.5C 63.3091,53.3549 61.8091,48.3549 60,43.5C 58.7016,50.6664 58.035,57.9998 58,65.5C 53.6237,69.7081 49.457,74.0415 45.5,78.5C 44.1383,69.6497 42.1383,60.9831 39.5,52.5C 38.6675,63.8187 38.1675,75.152 38,86.5C 35.6506,89.0168 33.1506,91.3501 30.5,93.5C 22.9098,84.1124 20.4098,73.4457 23,61.5C 28.7127,45.4584 39.8793,35.2918 56.5,31C 69.3152,28.0226 82.3152,26.8559 95.5,27.5C 99.9782,46.3304 99.4782,64.997 94,83.5C 82.2355,106.03 64.7355,112.364 41.5,102.5C 43.3056,99.528 45.3056,96.6947 47.5,94C 57.2734,91.8987 67.1067,90.0654 77,88.5C 78.3756,88.3158 79.2089,87.6491 79.5,86.5 Z"/></g>
<g><path style="opacity:1" fill="#a5d7a0" d="M 70.5,62.5 C 75.1667,63.1667 79.8333,63.8333 84.5,64.5C 79.456,64.8275 74.456,64.4941 69.5,63.5C 69.6236,62.8933 69.9569,62.56 70.5,62.5 Z"/></g>
<g><path style="opacity:1" fill="#93cf8d" d="M 54.5,84.5 C 62.8333,85.1667 71.1667,85.8333 79.5,86.5C 70.8078,86.8314 62.1411,86.498 53.5,85.5C 53.6236,84.8933 53.9569,84.56 54.5,84.5 Z"/></g>
</svg>
