<svg xmlns="http://www.w3.org/2000/svg" version="1.1" width="128px" height="128px" style="shape-rendering:geometricPrecision; text-rendering:geometricPrecision; image-rendering:optimizeQuality; fill-rule:evenodd; clip-rule:evenodd" xmlns:xlink="http://www.w3.org/1999/xlink">
<g><path style="opacity:0.978" fill="#d97746" d="M 57.5,0.5 C 92.8609,0.07305 115.361,16.7397 125,50.5C 129.734,82.5338 117.9,106.034 89.5,121C 59.4062,131.936 33.9062,125.436 13,101.5C -4.89644,72.9326 -3.22977,45.5992 18,19.5C 29.0874,8.7053 42.2541,2.37197 57.5,0.5 Z"/></g>
<g><path style="opacity:1" fill="#fefdfd" d="M 108.5,85.5 C 97.1716,86.1665 85.6716,86.4999 74,86.5C 62.1467,86.499 50.6467,85.8323 39.5,84.5C 45.4976,66.6765 51.9976,49.0098 59,31.5C 68.7728,30.1823 78.6061,30.1823 88.5,31.5C 95.3736,49.4576 102.04,67.4576 108.5,85.5 Z"/></g>
<g><path style="opacity:1" fill="#fefaf9" d="M 32.5,42.5 C 37.2137,42.1734 41.8804,42.5067 46.5,43.5C 40.9557,58.1365 35.6224,72.8032 30.5,87.5C 25.4889,87.6659 20.4889,87.4993 15.5,87C 21.0719,72.1157 26.7386,57.2824 32.5,42.5 Z"/></g>
<g><path style="opacity:1" fill="#f4dbce" d="M 39.5,84.5 C 50.6467,85.8323 62.1467,86.499 74,86.5C 85.6716,86.4999 97.1716,86.1665 108.5,85.5C 109.043,85.56 109.376,85.8933 109.5,86.5C 85.8427,87.4997 62.1761,87.8331 38.5,87.5C 38.2627,86.209 38.596,85.209 39.5,84.5 Z"/></g>
</svg>
