<svg xmlns="http://www.w3.org/2000/svg" version="1.1" width="128px" height="128px" style="shape-rendering:geometricPrecision; text-rendering:geometricPrecision; image-rendering:optimizeQuality; fill-rule:evenodd; clip-rule:evenodd" xmlns:xlink="http://www.w3.org/1999/xlink">
<g><path style="opacity:0.978" fill="#75cec0" d="M 57.5,0.5 C 92.8609,0.07305 115.361,16.7397 125,50.5C 129.734,82.5338 117.9,106.034 89.5,121C 59.4062,131.936 33.9062,125.436 13,101.5C -4.89644,72.9326 -3.22977,45.5992 18,19.5C 29.0874,8.7053 42.2541,2.37197 57.5,0.5 Z"/></g>
<g><path style="opacity:1" fill="#fdfefe" d="M 39.5,22.5 C 46.1327,26.1102 52.7993,29.7768 59.5,33.5C 60.6651,41.8134 60.8317,50.1467 60,58.5C 53.1676,54.7516 46.5009,50.7516 40,46.5C 39.5003,38.5069 39.3336,30.5069 39.5,22.5 Z"/></g>
<g><path style="opacity:1" fill="#fdfefe" d="M 85.5,22.5 C 86.824,26.107 87.4907,30.107 87.5,34.5C 87.3333,38.5 87.1667,42.5 87,46.5C 80.4991,50.7516 73.8324,54.7516 67,58.5C 66.1683,50.1467 66.3349,41.8134 67.5,33.5C 73.5638,29.8079 79.5638,26.1412 85.5,22.5 Z"/></g>
<g><path style="opacity:1" fill="#fcfefd" d="M 35.5,51.5 C 37.3084,51.4914 38.9751,51.9914 40.5,53C 46.1667,56.5 51.8333,60 57.5,63.5C 51.1667,67.3333 44.8333,71.1667 38.5,75C 35.9832,75.2566 33.6498,74.5899 31.5,73C 26.5,69.8333 21.5,66.6667 16.5,63.5C 22.8734,59.4393 29.2067,55.4393 35.5,51.5 Z"/></g>
<g><path style="opacity:1" fill="#fcfefd" d="M 88.5,51.5 C 96.3764,54.4394 103.71,58.4394 110.5,63.5C 104.298,67.532 97.9648,71.3653 91.5,75C 88.9832,75.2566 86.6498,74.5899 84.5,73C 79.5,69.8333 74.5,66.6667 69.5,63.5C 76.0665,59.7253 82.3999,55.7253 88.5,51.5 Z"/></g>
<g><path style="opacity:1" fill="#fdfefe" d="M 59.5,68.5 C 60.8209,76.6758 60.8209,85.0091 59.5,93.5C 53.0031,96.9141 46.6697,100.581 40.5,104.5C 39.3351,96.5208 39.1684,88.5208 40,80.5C 46.4803,76.3493 52.9803,72.3493 59.5,68.5 Z"/></g>
<g><path style="opacity:1" fill="#fdfefe" d="M 66.5,68.5 C 73.5522,72.11 80.3855,76.11 87,80.5C 87.8316,88.5208 87.6649,96.5208 86.5,104.5C 80.3303,100.581 73.9969,96.9141 67.5,93.5C 66.5021,85.1932 66.1688,76.8599 66.5,68.5 Z"/></g>
</svg>
