<svg xmlns="http://www.w3.org/2000/svg" version="1.1" width="128px" height="128px" style="shape-rendering:geometricPrecision; text-rendering:geometricPrecision; image-rendering:optimizeQuality; fill-rule:evenodd; clip-rule:evenodd" xmlns:xlink="http://www.w3.org/1999/xlink">
<g><path style="opacity:0.974" fill="#9099a1" d="M 57.5,0.5 C 92.8482,0.0686421 115.348,16.7353 125,50.5C 129.734,82.5338 117.9,106.034 89.5,121C 59.3938,131.933 33.8938,125.433 13,101.5C -4.89773,72.9454 -3.23106,45.612 18,19.5C 29.0874,8.7053 42.2541,2.37197 57.5,0.5 Z"/></g>
<g><path style="opacity:1" fill="#fdfdfd" d="M 54.5,24.5 C 78.5524,21.7636 94.3857,31.7636 102,54.5C 105.132,79.0092 94.9654,94.8425 71.5,102C 47.5159,104.671 32.0159,94.5046 25,71.5C 22.4379,47.922 32.2712,32.2553 54.5,24.5 Z"/></g>
<g><path style="opacity:1" fill="#919aa2" d="M 58.5,39.5 C 77.9753,39.4746 87.4753,49.1413 87,68.5C 82.4802,82.343 72.9802,88.5097 58.5,87C 44.657,82.4802 38.4903,72.9802 40,58.5C 43.0174,48.9839 49.1841,42.6505 58.5,39.5 Z"/></g>
</svg>
