<svg xmlns="http://www.w3.org/2000/svg" version="1.1" width="128px" height="128px" style="shape-rendering:geometricPrecision; text-rendering:geometricPrecision; image-rendering:optimizeQuality; fill-rule:evenodd; clip-rule:evenodd" xmlns:xlink="http://www.w3.org/1999/xlink">
<g><path style="opacity:0.974" fill="#ab6ac8" d="M 57.5,0.5 C 92.8609,0.07305 115.361,16.7397 125,50.5C 129.734,82.5338 117.9,106.034 89.5,121C 59.4062,131.936 33.9062,125.436 13,101.5C -4.89644,72.9326 -3.22977,45.5992 18,19.5C 29.0874,8.7053 42.2541,2.37197 57.5,0.5 Z"/></g>
<g><path style="opacity:1" fill="#fdfcfe" d="M 52.5,25.5 C 70.0936,22.6419 84.9269,27.6419 97,40.5C 105.99,56.7726 103.824,71.4393 90.5,84.5C 91.977,89.3539 91.477,94.0205 89,98.5C 85.6621,101.318 81.8288,102.151 77.5,101C 75,99.8333 73.1667,98 72,95.5C 69.5493,101.089 65.3826,102.922 59.5,101C 57.6217,99.4571 56.1217,97.6238 55,95.5C 52.0812,101.025 47.5812,102.858 41.5,101C 35.7098,96.8625 34.0431,91.3625 36.5,84.5C 23.1763,71.4393 21.0096,56.7726 30,40.5C 36.3435,33.5912 43.8435,28.5912 52.5,25.5 Z"/></g>
<g><path style="opacity:1" fill="#ab6bc8" d="M 55.5,38.5 C 66.5868,36.8105 76.4202,39.4771 85,46.5C 92.9593,59.6269 90.1259,69.7935 76.5,77C 63.8533,81.7821 52.3533,79.9488 42,71.5C 35.5178,62.1658 36.0178,53.3324 43.5,45C 47.4339,42.5361 51.4339,40.3694 55.5,38.5 Z"/></g>
</svg>
