<svg version="1.1" id="Layer_1" xmlns="http://www.w3.org/2000/svg" xmlns:xlink="http://www.w3.org/1999/xlink" x="0px" y="0px"
	 viewBox="0 0 512 512" style="enable-background:new 0 0 512 512;" xml:space="preserve">
<g>
	<path d="M0,256c0.02,141.39,114.61,255.98,256,256c141.39-0.02,255.98-114.61,256-256C511.98,114.61,397.39,0.02,256,0
		C114.61,0.02,0.02,114.61,0,256c0,14.14,11.46,25.6,25.6,25.6s25.6-11.46,25.6-25.6c0.01-56.64,22.88-107.67,59.98-144.82
		C148.33,74.08,199.36,51.21,256,51.2c56.63,0.01,107.67,22.88,144.82,59.98c37.1,37.14,59.97,88.18,59.98,144.82
		c-0.01,56.63-22.88,107.67-59.98,144.82c-37.14,37.1-88.18,59.97-144.82,59.98c-56.64-0.01-107.67-22.88-144.82-59.98
		C74.08,363.67,51.21,312.64,51.2,256c0-14.14-11.46-25.6-25.6-25.6S0,241.86,0,256L0,256z"/>
	<path d="M153.6,256c0.02,56.56,45.84,102.38,102.4,102.4c56.56-0.02,102.38-45.84,102.4-102.4
		c-0.02-56.56-45.84-102.38-102.4-102.4C199.44,153.62,153.62,199.44,153.6,256c0,14.14,11.46,25.6,25.6,25.6
		c14.14,0,25.6-11.46,25.6-25.6c0.05-28.27,22.93-51.15,51.2-51.2c28.27,0.05,51.15,22.93,51.2,51.2
		c-0.05,28.27-22.93,51.15-51.2,51.2c-28.27-0.05-51.15-22.93-51.2-51.2c0-14.14-11.46-25.6-25.6-25.6
		C165.06,230.4,153.6,241.86,153.6,256L153.6,256z"/>
	<path d="M25.6,281.6h153.6c14.14,0,25.6-11.46,25.6-25.6c0-14.14-11.46-25.6-25.6-25.6H25.6C11.46,230.4,0,241.86,0,256
		C0,270.14,11.46,281.6,25.6,281.6"/>
	<path d="M332.8,281.6h153.6c14.14,0,25.6-11.46,25.6-25.6c0-14.14-11.46-25.6-25.6-25.6H332.8c-14.14,0-25.6,11.46-25.6,25.6
		C307.2,270.14,318.66,281.6,332.8,281.6"/>
</g>
</svg>
