<svg xmlns="http://www.w3.org/2000/svg" version="1.1" width="559px" height="139px" style="shape-rendering:geometricPrecision; text-rendering:geometricPrecision; image-rendering:optimizeQuality; fill-rule:evenodd; clip-rule:evenodd" xmlns:xlink="http://www.w3.org/1999/xlink">
<g><path style="opacity:0.971" fill="#3d6bb8" d="M 119.5,-0.5 C 121.5,-0.5 123.5,-0.5 125.5,-0.5C 127.349,0.593015 129.016,1.92635 130.5,3.5C 131.931,6.9942 132.764,10.6609 133,14.5C 133.153,23.9054 133.986,33.2387 135.5,42.5C 136.522,42.1445 137.189,41.4778 137.5,40.5C 142.45,39.2139 147.45,39.2139 152.5,40.5C 158.532,36.321 165.199,33.4877 172.5,32C 177.751,31.1963 182.918,31.363 188,32.5C 189.648,31.283 191.481,30.4497 193.5,30C 199.361,29.3532 205.194,28.5199 211,27.5C 213.389,27.9631 215.723,28.6297 218,29.5C 223.6,28.0765 229.1,28.4098 234.5,30.5C 241.61,27.8116 248.944,26.9783 256.5,28C 260.858,29.1723 264.525,31.3389 267.5,34.5C 268.648,37.0869 270.315,38.0869 272.5,37.5C 282.58,29.7851 293.746,27.7851 306,31.5C 315.057,28.816 324.223,28.1493 333.5,29.5C 340.445,27.1263 347.445,26.9597 354.5,29C 357.621,30.3063 360.287,32.1397 362.5,34.5C 373.565,44.8403 378.898,57.6736 378.5,73C 378.109,80.9529 376.943,88.7863 375,96.5C 373.269,98.6166 371.102,100.117 368.5,101C 360.452,101.77 352.452,101.603 344.5,100.5C 343.833,100.5 343.167,100.5 342.5,100.5C 342.582,98.7483 341.749,97.7483 340,97.5C 330.539,99.1202 321.039,100.453 311.5,101.5C 309.938,101.267 308.605,100.6 307.5,99.5C 307.038,98.1201 306.038,97.4534 304.5,97.5C 295.561,101.841 286.395,102.507 277,99.5C 271.969,101.026 266.802,101.693 261.5,101.5C 249.224,101.089 236.89,101.089 224.5,101.5C 222.902,99.431 220.735,98.431 218,98.5C 210.164,99.5564 202.33,100.556 194.5,101.5C 193.063,100.275 191.396,99.2745 189.5,98.5C 183.649,100.364 177.649,101.364 171.5,101.5C 171.793,111.871 166.793,116.204 156.5,114.5C 151.816,111.474 147.149,108.474 142.5,105.5C 142.288,103.616 141.288,102.283 139.5,101.5C 139.165,107.332 136.165,110.832 130.5,112C 121.785,112.775 113.119,112.608 104.5,111.5C 99.6716,109.519 97.6716,105.852 98.5,100.5C 98.762,99.0222 98.4287,97.6888 97.5,96.5C 87.1207,102.289 76.4541,102.956 65.5,98.5C 63.5659,97.8897 61.8993,96.8897 60.5,95.5C 59.8549,94.1882 58.8549,93.1882 57.5,92.5C 53.2438,96.2535 48.5772,99.4201 43.5,102C 41.1152,102.556 38.7819,102.39 36.5,101.5C 33.1783,100.342 31.0117,98.0084 30,94.5C 25.1359,80.9079 20.4692,67.2412 16,53.5C 13.6667,51.8333 11.3333,50.1667 9,48.5C 5.90626,41.0245 2.73959,33.6912 -0.5,26.5C -0.5,23.5 -0.5,20.5 -0.5,17.5C 1.04602,14.8001 3.37935,12.9668 6.5,12C 23.1299,4.67343 40.4632,2.00676 58.5,4C 62.4723,5.31945 66.1389,7.15278 69.5,9.5C 72.5401,13.0658 75.0401,17.0658 77,21.5C 77.3333,24.8333 77.6667,28.1667 78,31.5C 79.3024,30.9152 80.469,30.2485 81.5,29.5C 83.8333,29.5 86.1667,29.5 88.5,29.5C 88.0559,21.9179 90.3892,15.4179 95.5,10C 103.707,6.7242 111.707,3.2242 119.5,-0.5 Z"/></g>
<g><path style="opacity:0.97" fill="#3c6bb9" d="M 442.5,3.5 C 446.154,12.1453 449.821,20.8119 453.5,29.5C 454.257,30.7733 454.923,30.7733 455.5,29.5C 461.281,25.606 467.614,24.106 474.5,25C 479.843,28.7387 485.843,30.9054 492.5,31.5C 499.429,28.8645 506.429,26.5311 513.5,24.5C 517.448,24.6406 520.781,26.1406 523.5,29C 533.305,29.3145 541.638,32.8145 548.5,39.5C 560.16,60.0134 557.16,78.1801 539.5,94C 535.856,96.6559 531.856,98.4893 527.5,99.5C 528.006,105.65 528.339,111.816 528.5,118C 528.612,122.944 528.112,127.777 527,132.5C 525.2,134.317 523.034,135.484 520.5,136C 512.841,136.5 505.174,136.666 497.5,136.5C 493.577,135.548 490.91,133.214 489.5,129.5C 489.256,121.182 488.923,112.849 488.5,104.5C 488.5,103.833 488.5,103.167 488.5,102.5C 488.895,99.4775 487.895,98.4775 485.5,99.5C 485.167,100.667 484.833,101.833 484.5,103C 492.532,132.135 481.865,142.968 452.5,135.5C 449.909,134.746 448.076,133.079 447,130.5C 445.781,123.579 445.114,116.579 445,109.5C 441.724,101.293 438.224,93.2931 434.5,85.5C 434.628,83.3453 434.128,81.3453 433,79.5C 428.077,89.0137 423.41,98.6804 419,108.5C 417.269,110.617 415.102,112.117 412.5,113C 403.119,113.78 393.786,113.613 384.5,112.5C 379.095,109.945 377.095,105.611 378.5,99.5C 378.5,99.1667 378.5,98.8333 378.5,98.5C 379.167,98.5 379.5,98.1667 379.5,97.5C 379.5,97.1667 379.5,96.8333 379.5,96.5C 380.338,96.1583 380.672,95.4916 380.5,94.5C 395.892,64.7165 411.059,34.7165 426,4.5C 431.226,-0.424229 436.726,-0.757562 442.5,3.5 Z"/></g>
<g><path style="opacity:0.569" fill="#bcbdbf" d="M 130.5,3.5 C 133.617,5.14276 135.45,7.80942 136,11.5C 136.788,21.1548 137.288,30.8215 137.5,40.5C 137.189,41.4778 136.522,42.1445 135.5,42.5C 133.986,33.2387 133.153,23.9054 133,14.5C 132.764,10.6609 131.931,6.9942 130.5,3.5 Z"/></g>
<g><path style="opacity:0.537" fill="#b9bbbf" d="M 442.5,3.5 C 444.129,4.62529 445.629,5.95862 447,7.5C 450.131,14.754 452.964,22.0874 455.5,29.5C 454.923,30.7733 454.257,30.7733 453.5,29.5C 449.821,20.8119 446.154,12.1453 442.5,3.5 Z"/></g>
<g><path style="opacity:1" fill="#fdd605" d="M 119.5,9.5 C 120.833,9.5 122.167,9.5 123.5,9.5C 124.6,25.4926 125.766,41.4926 127,57.5C 131.751,54.5406 136.584,51.7072 141.5,49C 146.197,48.884 150.864,49.384 155.5,50.5C 162.527,44.5423 170.694,41.209 180,40.5C 184.575,40.5608 188.908,41.5608 193,43.5C 193.49,42.2068 193.657,40.8734 193.5,39.5C 198.475,38.753 203.475,38.0863 208.5,37.5C 210.945,37.4029 213.111,38.0696 215,39.5C 221.309,37.9155 227.476,38.2489 233.5,40.5C 249.308,32.8651 261.642,36.5318 270.5,51.5C 276.011,45.49 282.678,41.3233 290.5,39C 297.285,38.4459 303.619,39.9459 309.5,43.5C 310.429,42.3112 310.762,40.9778 310.5,39.5C 315.475,38.753 320.475,38.0863 325.5,37.5C 327.945,37.4029 330.111,38.0696 332,39.5C 350.601,33.8076 362.601,40.4742 368,59.5C 369.899,70.5248 369.732,81.5248 367.5,92.5C 360.833,92.5 354.167,92.5 347.5,92.5C 348.354,80.5132 346.854,68.8465 343,57.5C 342.632,56.09 341.799,55.09 340.5,54.5C 338.242,56.6768 336.742,59.3435 336,62.5C 335.421,71.5532 335.421,80.5532 336,89.5C 328.23,90.6788 320.397,91.6788 312.5,92.5C 312.656,88.4183 312.156,84.4183 311,80.5C 300.18,93.5043 287.513,95.8377 273,87.5C 272.727,89.1012 272.227,90.6012 271.5,92C 265.175,92.4995 258.842,92.6662 252.5,92.5C 252.569,84.7981 252.069,77.1314 251,69.5C 250.122,64.1983 248.455,59.1983 246,54.5C 247.203,60.203 248.036,66.0364 248.5,72C 248.041,78.5466 247.208,85.0466 246,91.5C 239.59,92.4777 233.09,92.811 226.5,92.5C 226.569,84.7981 226.069,77.1314 225,69.5C 224.455,65.1982 223.122,61.1982 221,57.5C 220.138,59.087 219.471,60.7536 219,62.5C 218.421,71.5532 218.421,80.5532 219,89.5C 211.243,90.7934 203.41,91.7934 195.5,92.5C 195.5,90.8333 195.5,89.1667 195.5,87.5C 190.68,89.457 185.68,90.957 180.5,92C 174.448,92.7903 168.448,92.6236 162.5,91.5C 162.809,96.5841 162.309,101.584 161,106.5C 150.973,98.973 140.806,91.6396 130.5,84.5C 129.969,90.7211 129.636,96.8878 129.5,103C 122.174,103.5 114.841,103.666 107.5,103.5C 107.285,94.4875 106.785,85.4875 106,76.5C 98.5524,88.8075 87.719,93.9741 73.5,92C 65.3253,89.5107 60.4919,84.0107 59,75.5C 56.3602,54.7918 65.3602,42.4585 86,38.5C 92.7156,39.0705 98.7156,41.4038 104,45.5C 104.667,40.8333 104.667,36.1667 104,31.5C 101.919,30.6669 99.7522,30.6669 97.5,31.5C 97.7544,27.0613 98.5877,22.728 100,18.5C 106.712,15.7718 113.212,12.7718 119.5,9.5 Z"/></g>
<g><path style="opacity:1" fill="#fdd606" d="M 433.5,9.5 C 434.496,9.41423 435.329,9.74756 436,10.5C 439.893,21.2776 444.559,31.6109 450,41.5C 457.086,38.5279 464.253,35.8613 471.5,33.5C 471.192,35.924 471.526,38.2573 472.5,40.5C 479.416,38.0308 486.249,38.3641 493,41.5C 500.132,38.6818 507.298,36.0151 514.5,33.5C 514.298,35.9892 514.798,38.3225 516,40.5C 526.41,37.0763 535.41,39.4096 543,47.5C 550.458,65.5118 545.958,79.6784 529.5,90C 525.986,91.5617 522.319,92.395 518.5,92.5C 519.201,103.844 519.701,115.178 520,126.5C 513,127.833 506,127.833 499,126.5C 498.14,111.489 497.14,96.4895 496,81.5C 490.85,88.1604 484.017,91.827 475.5,92.5C 475.02,98.99 475.687,105.323 477.5,111.5C 476.549,116.77 476.215,122.103 476.5,127.5C 469.5,127.5 462.5,127.5 455.5,127.5C 455.271,120.485 454.771,113.485 454,106.5C 448.538,93.915 443.371,81.2484 438.5,68.5C 434.935,67.5342 431.435,67.5342 428,68.5C 422.5,80.1667 417,91.8333 411.5,103.5C 403.528,104.498 395.528,104.831 387.5,104.5C 387.343,103.127 387.51,101.793 388,100.5C 403.18,70.1401 418.347,39.8068 433.5,9.5 Z"/></g>
<g><path style="opacity:1" fill="#fdd606" d="M 37.5,12.5 C 44.5888,12.1156 51.5888,12.6156 58.5,14C 69.6863,19.9217 71.5196,28.0883 64,38.5C 58.1987,45.3025 52.0321,51.8025 45.5,58C 48.2598,66.7816 50.9265,75.6149 53.5,84.5C 49.4622,87.7083 45.2956,90.7083 41,93.5C 33.7421,76.4053 27.2421,58.9053 21.5,41C 21.1667,40.5 20.8333,40 20.5,39.5C 19.5846,41.9803 18.0846,42.6469 16,41.5C 12.9965,34.6546 10.4965,27.6546 8.5,20.5C 18.233,17.6529 27.8997,14.9862 37.5,12.5 Z"/></g>
<g><path style="opacity:0.521" fill="#b6b9bf" d="M 69.5,9.5 C 77.0874,14.0072 81.0874,20.6739 81.5,29.5C 80.469,30.2485 79.3024,30.9152 78,31.5C 77.6667,28.1667 77.3333,24.8333 77,21.5C 75.0401,17.0658 72.5401,13.0658 69.5,9.5 Z"/></g>
<g><path style="opacity:1" fill="#426db4" d="M 41.5,32.5 C 44.2469,32.1866 46.9135,32.52 49.5,33.5C 47.5472,37.1203 44.8805,40.1203 41.5,42.5C 39.1637,38.977 39.1637,35.6437 41.5,32.5 Z"/></g>
<g><path style="opacity:0.016" fill="#b1b6bf" d="M 267.5,34.5 C 269.411,35.075 271.078,36.075 272.5,37.5C 270.315,38.0869 268.648,37.0869 267.5,34.5 Z"/></g>
<g><path style="opacity:0.583" fill="#bcbdbf" d="M 362.5,34.5 C 376.732,44.4774 383.065,58.3107 381.5,76C 381.297,82.1798 380.963,88.3465 380.5,94.5C 379.662,94.8417 379.328,95.5084 379.5,96.5C 379.5,96.8333 379.5,97.1667 379.5,97.5C 378.833,97.5 378.5,97.8333 378.5,98.5C 378.5,98.8333 378.5,99.1667 378.5,99.5C 376.99,100.836 375.323,102.003 373.5,103C 364.833,103.667 356.167,103.667 347.5,103C 346.058,102.623 345.058,101.79 344.5,100.5C 352.452,101.603 360.452,101.77 368.5,101C 371.102,100.117 373.269,98.6166 375,96.5C 376.943,88.7863 378.109,80.9529 378.5,73C 378.898,57.6736 373.565,44.8403 362.5,34.5 Z"/></g>
<g><path style="opacity:0.596" fill="#bcbdbf" d="M 548.5,39.5 C 550.017,39.5106 551.184,40.1772 552,41.5C 554.464,45.4339 556.631,49.4339 558.5,53.5C 558.5,60.1667 558.5,66.8333 558.5,73.5C 554.135,87.0412 545.301,96.7079 532,102.5C 532.124,112.162 532.124,121.829 532,131.5C 530.982,135.015 528.815,137.348 525.5,138.5C 516.833,138.5 508.167,138.5 499.5,138.5C 498.833,137.833 498.167,137.167 497.5,136.5C 505.174,136.666 512.841,136.5 520.5,136C 523.034,135.484 525.2,134.317 527,132.5C 528.112,127.777 528.612,122.944 528.5,118C 528.339,111.816 528.006,105.65 527.5,99.5C 531.856,98.4893 535.856,96.6559 539.5,94C 557.16,78.1801 560.16,60.0134 548.5,39.5 Z"/></g>
<g><path style="opacity:1" fill="#4f72ac" d="M 433.5,44.5 C 434.945,47.9365 435.945,51.6032 436.5,55.5C 434.304,55.4348 432.304,54.7681 430.5,53.5C 432.105,50.6862 433.105,47.6862 433.5,44.5 Z"/></g>
<g><path style="opacity:1" fill="#416cb6" d="M 84.5,50.5 C 83.9049,53.6874 84.5716,56.8541 86.5,60C 89.85,60.9299 92.6833,60.0965 95,57.5C 94.3372,64.4856 90.5039,67.319 83.5,66C 79.3345,64.5169 77.8345,61.6836 79,57.5C 80.6665,55.0043 82.4998,52.671 84.5,50.5 Z"/></g>
<g><path style="opacity:1" fill="#416cb6" d="M 291.5,51.5 C 291.611,60.7888 295.444,62.7888 303,57.5C 302.337,64.4856 298.504,67.319 291.5,66C 287.335,64.5169 285.835,61.6836 287,57.5C 288.277,55.2528 289.777,53.2528 291.5,51.5 Z"/></g>
<g><path style="opacity:1" fill="#406cb6" d="M 477.5,51.5 C 478.239,51.369 478.906,51.5357 479.5,52C 477.483,56.4291 478.817,59.2624 483.5,60.5C 490.321,56.3198 491.321,57.8198 486.5,65C 476.961,68.6601 472.794,65.4934 474,55.5C 475.376,54.2949 476.542,52.9616 477.5,51.5 Z"/></g>
<g><path style="opacity:1" fill="#466eb2" d="M 520.5,51.5 C 521.984,54.1204 523.317,56.9537 524.5,60C 528.025,60.6579 530.859,59.4912 533,56.5C 531.725,66.8649 526.725,69.1982 518,63.5C 515.696,58.8553 516.529,54.8553 520.5,51.5 Z"/></g>
<g><path style="opacity:1" fill="#456eb3" d="M 171.5,56.5 C 173.199,56.3398 174.866,56.5065 176.5,57C 173.212,61.0768 170.045,65.2435 167,69.5C 165.379,63.9227 166.879,59.5894 171.5,56.5 Z"/></g>
<g><path style="opacity:1" fill="#486eb2" d="M 148.5,63.5 C 149.497,63.4701 150.164,63.9701 150.5,65C 149.451,69.5079 149.285,74.0079 150,78.5C 146.515,76.1796 143.349,73.5129 140.5,70.5C 143.239,68.1492 145.905,65.8159 148.5,63.5 Z"/></g>
<g><path style="opacity:1" fill="#4870b0" d="M 192.5,58.5 C 193.634,60.9664 193.801,63.633 193,66.5C 192.333,65.8333 191.667,65.1667 191,64.5C 188.872,67.6301 186.372,70.4634 183.5,73C 182.241,73.9819 180.908,74.3152 179.5,74C 184.044,68.9603 188.378,63.7937 192.5,58.5 Z"/></g>
<g><path style="opacity:0.601" fill="#bcbdbf" d="M 434.5,85.5 C 430.108,93.9536 425.941,102.62 422,111.5C 421.167,112.333 420.333,113.167 419.5,114C 408.932,115.619 398.265,115.952 387.5,115C 386.058,114.623 385.058,113.79 384.5,112.5C 393.786,113.613 403.119,113.78 412.5,113C 415.102,112.117 417.269,110.617 419,108.5C 423.41,98.6804 428.077,89.0137 433,79.5C 434.128,81.3453 434.628,83.3453 434.5,85.5 Z"/></g>
<g><path style="opacity:0.598" fill="#babcbf" d="M 60.5,95.5 C 56.6569,98.5025 52.6569,101.336 48.5,104C 45.5,104.667 42.5,104.667 39.5,104C 38.0577,103.623 37.0577,102.79 36.5,101.5C 38.7819,102.39 41.1152,102.556 43.5,102C 48.5772,99.4201 53.2438,96.2535 57.5,92.5C 58.8549,93.1882 59.8549,94.1882 60.5,95.5 Z"/></g>
<g><path style="opacity:0.546" fill="#bbbdbf" d="M 98.5,100.5 C 90.4518,104.175 82.1185,105.008 73.5,103C 70.3672,102.14 67.7005,100.64 65.5,98.5C 76.4541,102.956 87.1207,102.289 97.5,96.5C 98.4287,97.6888 98.762,99.0222 98.5,100.5 Z"/></g>
<g><path style="opacity:0.576" fill="#bdbebf" d="M 307.5,99.5 C 298.682,104.409 289.348,105.409 279.5,102.5C 265.887,103.181 252.387,103.514 239,103.5C 234.833,103.333 230.667,103.167 226.5,103C 225.584,102.722 224.918,102.222 224.5,101.5C 236.89,101.089 249.224,101.089 261.5,101.5C 266.802,101.693 271.969,101.026 277,99.5C 286.395,102.507 295.561,101.841 304.5,97.5C 306.038,97.4534 307.038,98.1201 307.5,99.5 Z"/></g>
<g><path style="opacity:0.56" fill="#b7babf" d="M 342.5,100.5 C 332.605,102.544 322.605,103.377 312.5,103C 311.944,102.617 311.611,102.117 311.5,101.5C 321.039,100.453 330.539,99.1202 340,97.5C 341.749,97.7483 342.582,98.7483 342.5,100.5 Z"/></g>
<g><path style="opacity:0.586" fill="#b9bbbf" d="M 194.5,101.5 C 187.879,102.791 181.213,103.791 174.5,104.5C 175.265,112.311 171.765,116.645 164,117.5C 161.044,117.432 158.544,116.432 156.5,114.5C 166.793,116.204 171.793,111.871 171.5,101.5C 177.649,101.364 183.649,100.364 189.5,98.5C 191.396,99.2745 193.063,100.275 194.5,101.5 Z"/></g>
<g><path style="opacity:0.543" fill="#b8bbbf" d="M 224.5,101.5 C 214.854,102.628 205.188,103.128 195.5,103C 194.944,102.617 194.611,102.117 194.5,101.5C 202.33,100.556 210.164,99.5564 218,98.5C 220.735,98.431 222.902,99.431 224.5,101.5 Z"/></g>
<g><path style="opacity:0.598" fill="#bbbdbf" d="M 488.5,102.5 C 487.167,103.167 487.167,103.833 488.5,104.5C 488.923,112.849 489.256,121.182 489.5,129.5C 488.279,133.385 485.946,136.385 482.5,138.5C 473.5,138.5 464.5,138.5 455.5,138.5C 454.306,137.728 453.306,136.728 452.5,135.5C 481.865,142.968 492.532,132.135 484.5,103C 484.833,101.833 485.167,100.667 485.5,99.5C 487.895,98.4775 488.895,99.4775 488.5,102.5 Z"/></g>
<g><path style="opacity:0.591" fill="#bcbdbf" d="M 142.5,105.5 C 141.931,109.812 139.598,112.646 135.5,114C 126.167,114.667 116.833,114.667 107.5,114C 106.058,113.623 105.058,112.79 104.5,111.5C 113.119,112.608 121.785,112.775 130.5,112C 136.165,110.832 139.165,107.332 139.5,101.5C 141.288,102.283 142.288,103.616 142.5,105.5 Z"/></g>
</svg>
