<svg xmlns="http://www.w3.org/2000/svg" version="1.1" width="128px" height="128px" style="shape-rendering:geometricPrecision; text-rendering:geometricPrecision; image-rendering:optimizeQuality; fill-rule:evenodd; clip-rule:evenodd" xmlns:xlink="http://www.w3.org/1999/xlink">
<g><path style="opacity:0.978" fill="#c7b78b" d="M 57.5,0.5 C 92.8482,0.0686421 115.348,16.7353 125,50.5C 129.734,82.5338 117.9,106.034 89.5,121C 59.3938,131.933 33.8938,125.433 13,101.5C -4.89773,72.9454 -3.23106,45.612 18,19.5C 29.0874,8.7053 42.2541,2.37197 57.5,0.5 Z"/></g>
<g><path style="opacity:1" fill="#fefefd" d="M 51.5,33.5 C 63.5,33.5 75.5,33.5 87.5,33.5C 83.8478,44.6271 79.5144,55.4604 74.5,66C 62.635,74.0301 50.635,81.8634 38.5,89.5C 34.2746,87.7578 29.9413,86.4245 25.5,85.5C 24.3682,78.844 23.3682,72.1773 22.5,65.5C 32.1887,54.8133 41.8554,44.1467 51.5,33.5 Z"/></g>
<g><path style="opacity:1" fill="#fdfcfb" d="M 94.5,34.5 C 98.3002,44.0657 101.634,53.899 104.5,64C 100.122,69.2418 95.6225,74.4085 91,79.5C 87.5339,75.2044 84.7006,70.5377 82.5,65.5C 86.5065,55.1436 90.5065,44.8102 94.5,34.5 Z"/></g>
<g><path style="opacity:1" fill="#fdfdfc" d="M 76.5,71.5 C 80.4887,75.177 83.822,79.5103 86.5,84.5C 82.3548,89.813 78.0214,94.9797 73.5,100C 64.9206,98.0843 56.5873,95.2509 48.5,91.5C 57.8626,84.8238 67.1959,78.1572 76.5,71.5 Z"/></g>
</svg>
