<svg xmlns="http://www.w3.org/2000/svg" version="1.1" width="128px" height="128px" style="shape-rendering:geometricPrecision; text-rendering:geometricPrecision; image-rendering:optimizeQuality; fill-rule:evenodd; clip-rule:evenodd" xmlns:xlink="http://www.w3.org/1999/xlink">
<g><path style="opacity:0.974" fill="#5b8ea1" d="M 57.5,0.5 C 92.8609,0.07305 115.361,16.7397 125,50.5C 129.734,82.5338 117.9,106.034 89.5,121C 59.4062,131.936 33.9062,125.436 13,101.5C -4.89644,72.9326 -3.22977,45.5992 18,19.5C 29.0874,8.7053 42.2541,2.37197 57.5,0.5 Z"/></g>
<g><path style="opacity:1" fill="#fdfefe" d="M 41.5,26.5 C 56.4116,26.176 71.245,26.5094 86,27.5C 93.0863,39.3374 99.9197,51.3374 106.5,63.5C 99.8791,75.9115 92.8791,88.0782 85.5,100C 70.5921,100.823 55.7587,100.657 41,99.5C 33.9137,87.6626 27.0803,75.6626 20.5,63.5C 27.2588,50.9769 34.2588,38.6436 41.5,26.5 Z"/></g>
<g><path style="opacity:1" fill="#5c8fa2" d="M 58.5,43.5 C 76.01,42.8421 84.1766,51.1754 83,68.5C 75.142,84.7671 63.8087,87.7671 49,77.5C 39.6602,62.5449 42.8269,51.2116 58.5,43.5 Z"/></g>
</svg>
