<svg xmlns="http://www.w3.org/2000/svg" version="1.1" width="128px" height="128px" style="shape-rendering:geometricPrecision; text-rendering:geometricPrecision; image-rendering:optimizeQuality; fill-rule:evenodd; clip-rule:evenodd" xmlns:xlink="http://www.w3.org/1999/xlink">
<g><path style="opacity:0.979" fill="#4d90d5" d="M 57.5,0.5 C 92.8609,0.07305 115.361,16.7397 125,50.5C 129.734,82.5338 117.9,106.034 89.5,121C 59.4062,131.936 33.9062,125.436 13,101.5C -4.89644,72.9326 -3.22977,45.5992 18,19.5C 29.0874,8.7053 42.2541,2.37197 57.5,0.5 Z"/></g>
<g><path style="opacity:1" fill="#fcfdfe" d="M 62.5,23.5 C 65.3943,24.8823 67.8943,26.8823 70,29.5C 77.5496,38.719 83.8829,48.719 89,59.5C 94.4277,71.4604 93.4277,82.7937 86,93.5C 71.6018,107.72 56.9352,108.053 42,94.5C 33.4415,80.3111 33.4415,65.9778 42,51.5C 47.8921,41.4466 54.7254,32.1133 62.5,23.5 Z"/></g>
<g><path style="opacity:1" fill="#5493d6" d="M 49.5,67.5 C 50.4526,75.6479 54.786,81.4813 62.5,85C 65.5,85.6667 68.5,85.6667 71.5,85C 74.2784,83.4711 76.945,82.1377 79.5,81C 75.8917,92.3083 68.2251,96.6417 56.5,94C 49.8941,90.802 46.5608,85.4686 46.5,78C 46.7784,74.2814 47.7784,70.7814 49.5,67.5 Z"/></g>
</svg>
